# xmcd
#
# Track frame offsets: 
#        150
#        21207
#        57023
#        82556
#        101365
#        125236
#        147023
#        198637
#        221016
#
# Disc length: 3319 seconds
#
# Revision: 1
# Processed by: cddbd v1.5.2PL0 Copyright (c) Steve Scherf et al.
# Submitted via: ExactAudioCopy v0.95b3
#
DISCID=760cf509
DTITLE=Railroad Earth - Railroad Earth
DYEAR=2010
DGENRE=Country
TTITLE0=Long Walk Home
TTITLE1=The Jupiter and The 119
TTITLE2=Black Elk Speaks
TTITLE3=Day On The Sand
TTITLE4=Lone Croft Farewell
TTITLE5=Too Much Information
TTITLE6=Spring-Heeled Jack
TTITLE7=On The Banks
TTITLE8=Potter's Field
EXTD=
EXTT0=
EXTT1=
EXTT2=
EXTT3=
EXTT4=
EXTT5=
EXTT6=
EXTT7=
EXTT8=
PLAYORDER=
